# xmcd CD database file
#
# Track frame offsets:
#	150
#	27226
#	48849
#	85763
#	117542
#	140727
#	173258
#	196796
#	222276
#	251426
#
# Disc length: 3603 seconds
#
# Revision: 0
# Processed by: cddbd v1.5.1PL2 Copyright (c) Steve Scherf et al.
# Submitted via: CDex 1.51
#
DISCID=800e110a
DTITLE=Martin Lubenov and Jazzta Prasta Band - Veselina
DYEAR=2005
DGENRE=Jazz
TTITLE0=Veselina
TTITLE1=Nishlijski Chochek
TTITLE2=Vine Leaf
TTITLE3=Salsa YU
TTITLE4=Balkan Picture
TTITLE5=Thrakian Dance
TTITLE6=16/8
TTITLE7=Ambulance
TTITLE8=The Three Ducklings
TTITLE9=Dragon Rachenitza
EXTD=YEAR: 2005
EXTT0=
EXTT1=
EXTT2=
EXTT3=
EXTT4=
EXTT5=
EXTT6=
EXTT7=
EXTT8=
EXTT9=
PLAYORDER=
